<svg width="38" height="28" viewBox="0 0 38 28" fill="none" xmlns="http://www.w3.org/2000/svg">
<path d="M21.3126 20.6953C21.9298 20.8828 22.5157 21.1484 23.0548 21.4688C24.0626 20.1328 25.4766 19.1328 27.086 18.6406C26.6329 18.3359 26.2501 17.9375 25.9532 17.4844H23.0938C23.0391 18.8125 22.3594 19.9844 21.3126 20.6953ZM24.0704 22.1953C24.7735 22.7813 25.3751 23.4922 25.836 24.2813H35.7813C34.5469 20.2266 29.8751 18.3359 26.1719 20.375C25.3594 20.8281 24.6407 21.4531 24.0704 22.1953ZM26.4376 25.5313C26.5938 25.9531 26.711 26.3906 26.7969 26.8438C26.8673 27.2266 26.5704 27.5781 26.1798 27.5781H11.8204C11.4298 27.5781 11.1173 27.2266 11.2188 26.7891C11.3048 26.3516 11.4219 25.9297 11.5704 25.5234H1.42194C1.03132 25.5234 0.718818 25.1719 0.82038 24.7344C1.17194 22.8984 2.15632 21.2813 3.53913 20.1328C4.33601 19.4688 5.27351 18.9531 6.29694 18.6406C4.17976 17.1953 3.89069 14.1797 5.71101 12.3594C6.22663 11.8516 6.87507 11.4688 7.59382 11.2891V2.92969C7.59382 1.63281 8.50788 0.414062 9.78913 0.414062H28.211C29.4923 0.414062 30.4063 1.63281 30.4063 2.92969V11.2891C33.8126 12.1563 34.6173 16.6563 31.7032 18.6484C34.5079 19.5 36.6485 21.8672 37.1876 24.7969C37.2579 25.1797 36.961 25.5313 36.5704 25.5313H26.4376ZM12.1563 24.2813C12.6251 23.4844 13.2188 22.7813 13.9219 22.1953C11.6173 19.1641 7.25007 18.6641 4.32819 21.0938C3.34382 21.9141 2.59382 23.0234 2.21101 24.2813H12.1563ZM14.9454 21.4766C15.4844 21.1484 16.0704 20.8906 16.6876 20.7031C15.6407 19.9844 14.961 18.8125 14.9063 17.4922H12.0469C11.7501 17.9453 11.3673 18.3438 10.9219 18.6484C12.5235 19.1406 13.9376 20.1328 14.9454 21.4766ZM23.2735 23.1484C22.1016 22.1719 20.6016 21.6094 19.0001 21.6094C16.0548 21.6094 13.461 23.5391 12.6094 26.3359H25.3907C25.0157 25.0938 24.2657 23.9766 23.2735 23.1484ZM19.0001 20.1641C20.5704 20.1641 21.8516 18.8906 21.8516 17.3125C21.8516 15.7422 20.5782 14.4609 19.0001 14.4609C17.4219 14.4609 16.1485 15.7344 16.1485 17.3125C16.1485 18.8906 17.4219 20.1641 19.0001 20.1641ZM15.0469 16.2422C15.8594 13.2266 19.6641 12.1797 21.8985 14.4219C22.3985 14.9141 22.7657 15.5469 22.9532 16.2422H25.4141C24.8048 13.7578 26.6016 11.3203 29.1563 11.1719V2.92969C29.1563 2.3125 28.7813 1.66406 28.211 1.66406H9.78913C9.21882 1.66406 8.84382 2.32031 8.84382 2.92969V11.1719C11.3985 11.3203 13.1954 13.7578 12.586 16.2422H15.0469ZM29.3985 18.1094C30.9688 18.1094 32.2501 16.8359 32.2501 15.2578C32.2501 13.6797 30.9766 12.4063 29.3985 12.4063C27.8204 12.4063 26.5469 13.6797 26.5469 15.2578C26.5469 16.8359 27.8204 18.1094 29.3985 18.1094ZM8.60163 18.1094C10.1719 18.1094 11.4532 16.8359 11.4532 15.2578C11.4532 13.6797 10.1798 12.4063 8.60163 12.4063C7.02351 12.4063 5.75007 13.6797 5.75007 15.2578C5.75788 16.8359 7.03132 18.1094 8.60163 18.1094ZM22.9219 9.88281C22.6798 9.64063 22.6798 9.24219 22.9219 9C23.1641 8.75781 23.5626 8.75781 23.8048 9L24.4141 9.60938C24.6563 9.85156 24.6563 10.25 24.4141 10.4922C24.1719 10.7344 23.7735 10.7344 23.5313 10.4922L22.9219 9.88281ZM23.8048 6.29688C23.5626 6.53906 23.1641 6.53906 22.9219 6.29688C22.6798 6.05469 22.6798 5.65625 22.9219 5.41406L23.5079 4.82813C23.7501 4.58594 24.1485 4.58594 24.3907 4.82813C24.6329 5.07031 24.6329 5.46875 24.3907 5.71094L23.8048 6.29688ZM23.8516 8.28125C23.5079 8.28125 23.2266 8 23.2266 7.65625C23.2266 7.3125 23.5079 7.03125 23.8516 7.03125H24.5548C24.8985 7.03125 25.1798 7.3125 25.1798 7.65625C25.1798 8 24.8985 8.28125 24.5548 8.28125H23.8516ZM16.0626 12.125C16.0626 12.4688 15.7813 12.75 15.4376 12.75C15.0938 12.75 14.8126 12.4688 14.8126 12.125V10.3047C13.6251 10.0625 12.8204 8.90625 12.8204 7.66406C12.8204 6.25 13.8594 4.97656 15.2579 4.97656H16.9298L21.1563 2.90625C21.5704 2.70313 22.0548 3.01563 22.0548 3.46094V11.8516C22.0548 12.2891 21.586 12.6484 21.1016 12.3828L16.9219 10.3359H16.0626V12.125ZM15.3829 9.10156H16.4376V6.22656H15.2501C14.1954 6.22656 13.6407 7.80469 14.4376 8.70313C14.6485 8.94531 14.9376 9.09375 15.2501 9.09375H15.3829V9.10156ZM20.8048 4.46094L17.6954 5.98438V9.33594L20.8048 10.8594V4.46094Z" fill="#12171A"/>
</svg>
