<svg width="39" height="29" viewBox="0 0 39 29" fill="none" xmlns="http://www.w3.org/2000/svg">
<path d="M16.4239 10.047H4.25587C1.90917 10.047 0 8.12932 0 5.77196C0 3.41459 1.90917 1.49658 4.25587 1.49658V2.71533C2.58131 2.71533 1.21875 4.08643 1.21875 5.77196C1.21875 7.45718 2.58131 8.82828 4.25587 8.82828H16.4239V10.047Z" fill="#282D33"/>
<path d="M35.0098 16.8425H33.4739V15.6238H35.0098C36.5381 15.6238 37.7813 14.373 37.7813 12.8353C37.7813 11.2981 36.5381 10.0474 35.0098 10.0474H15.8456V8.82861H35.0098C37.21 8.82861 39 10.626 39 12.8353C39 15.0445 37.21 16.8425 35.0098 16.8425Z" fill="#282D33"/>
<path d="M32.9508 28.0866H5.36863C4.75164 28.0866 4.24951 27.5835 4.24951 26.9647V13.6401C4.24951 13.0219 4.75164 12.5186 5.36863 12.5186H32.9514C33.5684 12.5186 34.0708 13.0216 34.0708 13.6401V26.9647C34.0696 27.5838 33.5672 28.0866 32.9508 28.0866ZM5.46826 26.8678H32.8517L32.8524 13.7373H5.46826V26.8678Z" fill="#282D33"/>
<path d="M6.99683 15.1223H9.18387V16.3411H6.99683V15.1223Z" fill="#282D33"/>
<path d="M10.1608 15.1223H12.3469V16.3411H10.1608V15.1223Z" fill="#282D33"/>
<path d="M13.3237 15.1223H15.5108V16.3411H13.3237V15.1223Z" fill="#282D33"/>
<path d="M16.4873 15.1223H18.674V16.3411H16.4873V15.1223Z" fill="#282D33"/>
<path d="M19.6514 15.1223H21.8378V16.3411H19.6514V15.1223Z" fill="#282D33"/>
<path d="M22.8141 15.1223H25.0011V16.3411H22.8141V15.1223Z" fill="#282D33"/>
<path d="M25.9773 15.1223H28.164V16.3411H25.9773V15.1223Z" fill="#282D33"/>
<path d="M29.1412 15.1223H31.3277V16.3411H29.1412V15.1223Z" fill="#282D33"/>
<path d="M6.99683 18.0642H9.18387V19.283H6.99683V18.0642Z" fill="#282D33"/>
<path d="M10.1608 18.0642H12.3469V19.283H10.1608V18.0642Z" fill="#282D33"/>
<path d="M13.3237 18.0642H15.5108V19.283H13.3237V18.0642Z" fill="#282D33"/>
<path d="M16.4873 18.0642H18.674V19.283H16.4873V18.0642Z" fill="#282D33"/>
<path d="M19.6514 18.0642H21.8378V19.283H19.6514V18.0642Z" fill="#282D33"/>
<path d="M22.8141 18.0642H25.0011V19.283H22.8141V18.0642Z" fill="#282D33"/>
<path d="M25.9773 18.0642H28.164V19.283H25.9773V18.0642Z" fill="#282D33"/>
<path d="M29.1412 18.0642H31.3277V19.283H29.1412V18.0642Z" fill="#282D33"/>
<path d="M6.99683 21.0054H9.18387V22.2241H6.99683V21.0054Z" fill="#282D33"/>
<path d="M10.1608 21.0054H12.3469V22.2241H10.1608V21.0054Z" fill="#282D33"/>
<path d="M13.3237 21.0054H15.5108V22.2241H13.3237V21.0054Z" fill="#282D33"/>
<path d="M16.4873 21.0054H18.674V22.2241H16.4873V21.0054Z" fill="#282D33"/>
<path d="M19.6514 21.0054H21.8378V22.2241H19.6514V21.0054Z" fill="#282D33"/>
<path d="M22.8141 21.0054H25.0011V22.2241H22.8141V21.0054Z" fill="#282D33"/>
<path d="M25.9773 21.0054H28.164V22.2241H25.9773V21.0054Z" fill="#282D33"/>
<path d="M29.1412 21.0054H31.3277V22.2241H29.1412V21.0054Z" fill="#282D33"/>
<path d="M6.99683 23.9447H9.18387V25.1635H6.99683V23.9447Z" fill="#282D33"/>
<path d="M10.1608 23.9447H12.3469V25.1635H10.1608V23.9447Z" fill="#282D33"/>
<path d="M13.3237 23.9447H25.0301V25.1635H13.3237V23.9447Z" fill="#282D33"/>
<path d="M25.9773 23.9447H28.164V25.1635H25.9773V23.9447Z" fill="#282D33"/>
<path d="M29.1412 23.9447H31.3277V25.1635H29.1412V23.9447Z" fill="#282D33"/>
<path d="M29.5961 4.52784L29.1492 3.39409L31.9221 2.30027L29.1495 1.20827L29.5958 0.0742188L35.2463 2.29966L29.5961 4.52784Z" fill="#282D33"/>
<path d="M6.99746 4.60127L4.01578 4.60096C3.5161 4.60096 3.12457 4.16953 3.12457 3.61865L3.12427 0.981276C3.12488 0.430706 3.51671 -0.00012207 4.01578 -0.00012207H6.99746V4.60127ZM4.34332 3.38221H5.77871V1.21863H4.34302L4.34332 3.38221Z" fill="#282D33"/>
<path d="M29.5782 4.59944H5.77844V0.00231934H29.5782V4.59944ZM6.99719 3.38069H28.3594V1.22107H6.99719V3.38069Z" fill="#282D33"/>
</svg>
