<svg width="1077" height="476" viewBox="0 0 1077 476" fill="none" xmlns="http://www.w3.org/2000/svg">
<g clip-path="url(#clip0_73_2317)">
<path d="M682.576 65.9855C662.453 87.5914 638.255 105.014 611.371 117.251C585.494 128.964 557.551 135.443 529.155 136.314C502.456 137.187 475.851 132.755 450.881 123.277C425.911 113.799 403.074 99.4628 383.695 81.1002C383.078 80.4772 382.731 79.6362 382.731 78.7597C382.731 77.8833 383.078 77.0422 383.695 76.4192C384.214 75.8854 384.899 75.5443 385.638 75.452C386.378 75.3597 387.126 75.5218 387.761 75.9116C407.991 88.0217 430.437 95.9802 453.785 99.3211C477.132 102.662 500.912 101.318 523.734 95.369C544.365 89.9677 563.706 80.4991 580.618 67.5203C597.531 54.5416 611.673 38.315 622.213 19.7955C624.534 15.1621 627.769 11.0456 631.725 7.69386C635.681 4.34208 640.274 1.82427 645.229 0.291956C650.185 -1.24036 655.399 -1.7555 660.559 -1.22245C665.719 -0.6894 670.717 0.880814 675.254 3.39369C679.79 5.90656 683.77 9.31014 686.955 13.3996C690.14 17.489 692.464 22.1798 693.786 27.1896C695.109 32.1994 695.402 37.4246 694.65 42.5509C693.898 47.6771 692.115 52.5982 689.409 57.0182C687.915 59.7159 686.115 62.2328 684.044 64.5192L682.576 65.9855Z" fill="#21B5BA"/>
<path d="M107.288 348.033C92.9627 348.034 78.9005 344.192 66.5713 336.907C54.242 329.623 44.0985 319.164 37.2012 306.625C30.304 294.085 26.9063 279.925 27.3634 265.625C27.8205 251.325 32.1156 237.41 39.7997 225.335C47.4838 213.26 58.2746 203.469 71.044 196.985C83.8134 190.501 98.0923 187.562 112.388 188.476C126.684 189.39 140.471 194.123 152.308 202.18C164.146 210.238 173.599 221.323 179.679 234.278L204.468 222.66C194.064 200.547 176.408 182.649 154.424 171.932C132.44 161.216 107.45 158.324 83.5955 163.737C59.741 169.15 38.455 182.543 23.2657 201.695C8.07641 220.847 -0.103922 244.608 0.0806944 269.039C0.265311 293.471 8.80377 317.106 24.2807 336.027C39.7577 354.948 61.2438 368.018 85.1773 373.071C109.111 378.123 134.055 374.856 155.874 363.809C177.693 352.762 195.077 334.6 205.145 312.333L180.187 301.053C173.828 315.043 163.574 326.911 150.648 335.241C137.722 343.571 122.67 348.011 107.288 348.033Z" fill="#BDBCBC"/>
<path d="M308.142 223.731C292.895 223.72 277.987 228.226 265.304 236.678C252.621 245.13 242.733 257.149 236.891 271.215C231.048 285.281 229.514 300.762 232.482 315.699C235.449 330.636 242.786 344.358 253.563 355.13C264.34 365.902 278.074 373.24 293.027 376.215C307.98 379.19 323.481 377.668 337.569 371.843C351.656 366.018 363.697 356.151 372.169 343.49C380.641 330.829 385.163 315.943 385.163 300.715C385.148 280.312 377.03 260.748 362.591 246.316C348.151 231.883 328.57 223.761 308.142 223.731ZM308.142 350.289C298.309 350.3 288.694 347.397 280.513 341.948C272.333 336.499 265.955 328.748 262.187 319.677C258.419 310.606 257.431 300.622 259.346 290.99C261.262 281.357 265.995 272.509 272.948 265.564C279.901 258.62 288.76 253.892 298.405 251.979C308.049 250.066 318.045 251.053 327.127 254.817C336.209 258.58 343.97 264.95 349.425 273.12C354.881 281.291 357.788 290.894 357.776 300.715C357.761 313.858 352.527 326.459 343.222 335.752C333.917 345.046 321.301 350.274 308.142 350.289Z" fill="#BDBCBC"/>
<path d="M999.979 223.731C984.732 223.72 969.824 228.226 957.141 236.678C944.458 245.13 934.57 257.149 928.728 271.215C922.885 285.281 921.351 300.762 924.318 315.699C927.286 330.636 934.623 344.358 945.4 355.13C956.177 365.902 969.911 373.24 984.864 376.215C999.817 379.19 1015.32 377.668 1029.41 371.843C1043.49 366.018 1055.53 356.151 1064.01 343.49C1072.48 330.829 1077 315.943 1077 300.715C1076.98 280.312 1068.87 260.748 1054.43 246.316C1039.99 231.883 1020.41 223.761 999.979 223.731ZM999.979 350.289C990.146 350.3 980.531 347.397 972.35 341.948C964.17 336.499 957.792 328.748 954.024 319.677C950.256 310.606 949.267 300.622 951.183 290.99C953.099 281.357 957.832 272.509 964.785 265.564C971.738 258.62 980.597 253.892 990.242 251.979C999.886 250.066 1009.88 251.053 1018.96 254.817C1028.05 258.58 1035.81 264.95 1041.26 273.12C1046.72 281.291 1049.62 290.894 1049.61 300.715C1049.6 313.858 1044.36 326.459 1035.06 335.752C1025.75 345.046 1013.14 350.274 999.979 350.289Z" fill="#BDBCBC"/>
<path d="M487.877 223.731C467.439 223.746 447.843 231.862 433.391 246.296C418.94 260.73 410.814 280.302 410.799 300.715V372.453H438.186V300.715C437.961 294.06 439.079 287.428 441.474 281.214C443.869 275 447.491 269.331 452.125 264.544C456.759 259.757 462.309 255.951 468.447 253.351C474.584 250.751 481.182 249.412 487.849 249.412C494.515 249.412 501.114 250.751 507.251 253.351C513.388 255.951 518.939 259.757 523.573 264.544C528.207 269.331 531.829 275 534.224 281.214C536.618 287.428 537.737 294.06 537.512 300.715V372.453H565.181V300.715C565.166 280.312 557.048 260.748 542.609 246.316C528.169 231.883 508.587 223.761 488.159 223.731" fill="#BDBCBC"/>
<path d="M591.099 238V372.453H618.486V323.443H661.457V296.034H618.486V238C618.501 224.842 623.741 212.227 633.056 202.923C642.372 193.618 655.003 188.385 668.177 188.37V161.017C647.739 161.032 628.143 169.147 613.691 183.581C599.24 198.015 591.114 217.587 591.099 238Z" fill="#BDBCBC"/>
<path d="M868.353 241.891C857.13 232.417 843.428 226.344 828.863 224.389C814.299 222.434 799.478 224.678 786.148 230.858C772.818 237.037 761.535 246.893 753.628 259.265C745.721 271.637 741.52 286.009 741.52 300.687C741.52 315.364 745.721 329.736 753.628 342.108C761.535 354.48 772.818 364.336 786.148 370.515C799.478 376.695 814.299 378.939 828.863 376.984C843.428 375.029 857.13 368.956 868.353 359.482V372.453H895.74V161.017H868.353V241.891ZM818.719 350.289C808.886 350.3 799.271 347.397 791.09 341.948C782.91 336.499 776.532 328.748 772.764 319.677C768.996 310.606 768.007 300.622 769.923 290.99C771.839 281.357 776.572 272.509 783.525 265.564C790.478 258.62 799.337 253.892 808.982 251.979C818.626 250.066 828.622 251.053 837.704 254.817C846.786 258.58 854.547 264.95 860.002 273.12C865.458 281.291 868.364 290.894 868.353 300.715C868.338 313.858 863.104 326.459 853.799 335.752C844.494 345.046 831.878 350.274 818.719 350.289Z" fill="#BDBCBC"/>
<path d="M715.553 222.829H688.167V372.453H715.553V222.829Z" fill="#BDBCBC"/>
<path d="M701.832 159.889C698.892 159.878 696.015 160.738 693.566 162.361C691.116 163.984 689.204 166.297 688.071 169.006C686.938 171.715 686.636 174.699 687.203 177.58C687.769 180.461 689.179 183.11 691.254 185.19C693.329 187.27 695.975 188.688 698.857 189.265C701.739 189.842 704.728 189.551 707.445 188.43C710.162 187.309 712.485 185.408 714.119 182.968C715.754 180.527 716.626 177.657 716.626 174.721C716.626 170.797 715.069 167.033 712.296 164.253C709.523 161.473 705.761 159.904 701.832 159.889Z" fill="#BDBCBC"/>
</g>
<defs>
<clipPath id="clip0_73_2317">
<rect width="1077" height="476" fill="white"/>
</clipPath>
</defs>
</svg>
