<svg id="Layer_1" data-name="Layer 1" xmlns="http://www.w3.org/2000/svg" viewBox="0 0 627.07 276.79"><defs><style>.cls-1{fill:#21b5ba;}</style></defs><path class="cls-1" d="M829.39,536.36a299.3,299.3,0,0,1-40.09,37c-13.88,10.8-27.76,21.59-43.18,32.39C730.7,615,715.28,624.26,699.86,632c-4.62,3.08-9.25,4.63-15.42,7.71-52.43,23.13-107.94,37-165,38.55-54,1.54-106.4-7.71-157.29-26.21A396.47,396.47,0,0,1,228,567.2c-1.54-1.54-1.54-3.08-1.54-4.62s0-3.09,1.54-4.63,3.09-1.54,4.63-1.54,3.08,0,4.63,1.54c40.09,24.68,84.81,40.1,132.61,46.26,46.26,6.17,94.06,4.63,140.33-7.71A314.38,314.38,0,0,0,624.3,541c33.93-26.21,61.69-58.6,83.27-95.6,4.63-9.26,10.8-17,18.51-24.68,7.71-6.17,17-12.33,27.75-15.42a68.3,68.3,0,0,1,30.85-3.08A92.84,92.84,0,0,1,814,411.46c9.26,4.63,17,12.34,23.13,20.05A78.18,78.18,0,0,1,851,459.26c3.09,10.8,3.09,20.05,1.54,30.84C851,507.07,841.73,522.49,829.39,536.36Z" transform="translate(-226.46 -401.6)"/></svg>