<svg width="38" height="38" viewBox="0 0 38 38" fill="none" xmlns="http://www.w3.org/2000/svg">
<path d="M20.875 4H17.125C16.9592 4 16.8003 3.93415 16.6831 3.81694C16.5658 3.69973 16.5 3.54076 16.5 3.375C16.5 3.20924 16.5658 3.05027 16.6831 2.93306C16.8003 2.81585 16.9592 2.75 17.125 2.75H20.875C21.0408 2.75 21.1997 2.81585 21.3169 2.93306C21.4342 3.05027 21.5 3.20924 21.5 3.375C21.5 3.54076 21.4342 3.69973 21.3169 3.81694C21.1997 3.93415 21.0408 4 20.875 4ZM25.875 37.75H12.125C11.2965 37.749 10.5022 37.4194 9.91639 36.8336C9.33055 36.2478 9.00099 35.4535 9 34.625V13.375C9 13.2092 9.06585 13.0503 9.18306 12.9331C9.30027 12.8158 9.45924 12.75 9.625 12.75C9.79076 12.75 9.94973 12.8158 10.0669 12.9331C10.1842 13.0503 10.25 13.2092 10.25 13.375V34.625C10.25 35.6587 11.0912 36.5 12.125 36.5H25.875C26.9088 36.5 27.75 35.6587 27.75 34.625V13.375C27.75 13.2092 27.8158 13.0503 27.9331 12.9331C28.0503 12.8158 28.2092 12.75 28.375 12.75C28.5408 12.75 28.6997 12.8158 28.8169 12.9331C28.9342 13.0503 29 13.2092 29 13.375V34.625C29 36.3475 27.5987 37.75 25.875 37.75Z" fill="#12171A"/>
<path d="M28.375 17.75C28.2092 17.75 28.0503 17.6842 27.9331 17.5669C27.8158 17.4497 27.75 17.2908 27.75 17.125V3.375C27.75 2.34125 26.9088 1.5 25.875 1.5H12.125C11.0912 1.5 10.25 2.34125 10.25 3.375V17.125C10.25 17.2908 10.1842 17.4497 10.0669 17.5669C9.94973 17.6842 9.79076 17.75 9.625 17.75C9.45924 17.75 9.30027 17.6842 9.18306 17.5669C9.06585 17.4497 9 17.2908 9 17.125V3.375C9 1.6525 10.4012 0.25 12.125 0.25H25.875C27.5987 0.25 29 1.6525 29 3.375V17.125C29 17.2908 28.9342 17.4497 28.8169 17.5669C28.6997 17.6842 28.5408 17.75 28.375 17.75ZM32.125 6.5625C31.78 6.5625 31.5 6.345 31.5 6V5.875C31.5 5.70924 31.5658 5.55027 31.6831 5.43306C31.8003 5.31585 31.9592 5.25 32.125 5.25C32.2908 5.25 32.4497 5.31585 32.5669 5.43306C32.6842 5.55027 32.75 5.70924 32.75 5.875C32.75 6.22 32.47 6.5625 32.125 6.5625ZM32.125 9.0625C31.78 9.0625 31.5 8.845 31.5 8.5V8.375C31.5 8.20924 31.5658 8.05027 31.6831 7.93306C31.8003 7.81585 31.9592 7.75 32.125 7.75C32.2908 7.75 32.4497 7.81585 32.5669 7.93306C32.6842 8.05027 32.75 8.20924 32.75 8.375C32.75 8.72 32.47 9.0625 32.125 9.0625ZM32.125 11.5625C31.78 11.5625 31.5 11.345 31.5 11V10.875C31.5 10.7092 31.5658 10.5503 31.6831 10.4331C31.8003 10.3158 31.9592 10.25 32.125 10.25C32.2908 10.25 32.4497 10.3158 32.5669 10.4331C32.6842 10.5503 32.75 10.7092 32.75 10.875C32.75 11.22 32.47 11.5625 32.125 11.5625ZM5.875 27.6875C5.53 27.6875 5.25 27.47 5.25 27.125V27C5.25 26.8342 5.31585 26.6753 5.43306 26.5581C5.55027 26.4408 5.70924 26.375 5.875 26.375C6.04076 26.375 6.19973 26.4408 6.31694 26.5581C6.43415 26.6753 6.5 26.8342 6.5 27C6.5 27.345 6.22 27.6875 5.875 27.6875ZM5.875 30.1875C5.53 30.1875 5.25 29.97 5.25 29.625V29.5C5.25 29.3342 5.31585 29.1753 5.43306 29.0581C5.55027 28.9408 5.70924 28.875 5.875 28.875C6.04076 28.875 6.19973 28.9408 6.31694 29.0581C6.43415 29.1753 6.5 29.3342 6.5 29.5C6.5 29.845 6.22 30.1875 5.875 30.1875ZM5.875 32.6875C5.53 32.6875 5.25 32.47 5.25 32.125V32C5.25 31.8342 5.31585 31.6753 5.43306 31.5581C5.55027 31.4408 5.70924 31.375 5.875 31.375C6.04076 31.375 6.19973 31.4408 6.31694 31.5581C6.43415 31.6753 6.5 31.8342 6.5 32C6.5 32.345 6.22 32.6875 5.875 32.6875Z" fill="#12171A"/>
<path d="M30.0512 32.75C29.958 32.75 29.866 32.7292 29.7818 32.689C29.6977 32.6489 29.6236 32.5904 29.565 32.5179C29.5064 32.4454 29.4647 32.3607 29.4431 32.27C29.4215 32.1793 29.4204 32.0849 29.44 31.9938L29.8525 30.0812C29.8771 29.9664 29.9337 29.8608 30.0158 29.7768C30.0978 29.6927 30.202 29.6336 30.3162 29.6063C30.9194 29.4584 31.4959 29.2176 32.025 28.8925C32.1248 28.8316 32.2396 28.7999 32.3565 28.801C32.4734 28.8021 32.5876 28.836 32.6862 28.8988L33.9237 29.69L34.69 28.9175L33.8988 27.69C33.8352 27.5913 33.8007 27.4767 33.7992 27.3594C33.7976 27.242 33.8291 27.1266 33.89 27.0262C34.2152 26.4973 34.4556 25.9208 34.6025 25.3175C34.63 25.2036 34.6888 25.0997 34.7723 25.0175C34.8558 24.9353 34.9607 24.8782 35.075 24.8525L36.5 24.5363V23.465L35.0763 23.1488C34.9619 23.1231 34.8571 23.0659 34.7736 22.9837C34.6901 22.9016 34.6312 22.7976 34.6037 22.6838C34.4563 22.0807 34.2159 21.5042 33.8913 20.975C33.8299 20.8751 33.798 20.7599 33.7993 20.6427C33.8006 20.5254 33.8351 20.411 33.8988 20.3125L34.6912 19.0738L33.9262 18.3087L32.6875 19.1012C32.589 19.1643 32.4747 19.1983 32.3578 19.1994C32.2408 19.2005 32.1259 19.1687 32.0262 19.1075C31.4969 18.7829 30.9205 18.5421 30.3175 18.3938C30.2033 18.3664 30.0991 18.3073 30.017 18.2232C29.935 18.1392 29.8784 18.0336 29.8538 17.9188L29.5463 16.5H29C28.8342 16.5 28.6753 16.4342 28.5581 16.3169C28.4408 16.1997 28.375 16.0408 28.375 15.875C28.375 15.7092 28.4408 15.5503 28.5581 15.4331C28.6753 15.3158 28.8342 15.25 29 15.25H30.05C30.1928 15.2502 30.3312 15.2994 30.4422 15.3892C30.5531 15.479 30.63 15.6042 30.66 15.7438L30.9937 17.285C31.4512 17.4238 31.9 17.6113 32.3325 17.845L33.675 16.9862C33.7951 16.9095 33.9377 16.8761 34.0793 16.8916C34.221 16.9071 34.3531 16.9704 34.4538 17.0712L35.93 18.5463C36.0306 18.6471 36.0938 18.7793 36.109 18.9209C36.1242 19.0625 36.0906 19.2051 36.0138 19.325L35.155 20.6675C35.3887 21.1012 35.5762 21.55 35.715 22.0087L37.2588 22.3512C37.5463 22.415 37.75 22.67 37.75 22.9625V25.0375C37.7499 25.1798 37.7014 25.3177 37.6123 25.4287C37.5232 25.5396 37.3989 25.6168 37.26 25.6475L35.7162 25.99C35.5752 26.4544 35.3875 26.9033 35.1562 27.33L36.0138 28.66C36.0914 28.7795 36.1257 28.922 36.1109 29.0637C36.0961 29.2055 36.0331 29.3379 35.9325 29.4387L34.4562 30.9263C34.3555 31.0274 34.2233 31.091 34.0814 31.1067C33.9396 31.1224 33.7966 31.0892 33.6762 31.0125L32.3337 30.1538C31.9073 30.3846 31.4588 30.5722 30.995 30.7138L30.6613 32.255C30.6313 32.3947 30.5545 32.52 30.4435 32.61C30.3326 32.7001 30.1941 32.7495 30.0512 32.75Z" fill="#12171A"/>
<path d="M30.7388 27.2226C30.605 27.2223 30.4747 27.1791 30.3673 27.0993C30.2598 27.0195 30.1808 26.9073 30.1419 26.7792C30.103 26.6512 30.1062 26.514 30.1511 26.3879C30.196 26.2618 30.2802 26.1535 30.3913 26.0788C30.8711 25.7555 31.224 25.276 31.39 24.7218C31.556 24.1676 31.5249 23.573 31.302 23.0392C31.0791 22.5054 30.6781 22.0653 30.1672 21.7938C29.6564 21.5223 29.0673 21.4362 28.5001 21.5501C28.4196 21.5666 28.3367 21.567 28.2561 21.5515C28.1755 21.536 28.0987 21.5047 28.0302 21.4595C27.9616 21.4143 27.9027 21.356 27.8567 21.288C27.8106 21.22 27.7785 21.1436 27.762 21.0632C27.7455 20.9827 27.745 20.8999 27.7605 20.8192C27.776 20.7386 27.8073 20.6618 27.8525 20.5933C27.8977 20.5247 27.956 20.4658 28.024 20.4198C28.092 20.3737 28.1684 20.3416 28.2488 20.3251C28.7937 20.2146 29.3563 20.2265 29.8961 20.3599C30.4358 20.4933 30.9392 20.7448 31.3699 21.0965C31.8005 21.4481 32.1477 21.8909 32.3864 22.3931C32.6251 22.8952 32.7493 23.4441 32.7501 24.0001C32.7502 24.6162 32.5985 25.2229 32.3083 25.7664C32.0181 26.31 31.5984 26.7736 31.0863 27.1163C30.9836 27.1854 30.8626 27.2224 30.7388 27.2226ZM9.00008 17.7501C8.19437 17.7511 7.40975 17.4926 6.76251 17.0127C6.11527 16.5329 5.63985 15.8573 5.40671 15.086C5.17357 14.3148 5.19511 13.489 5.46815 12.7309C5.74119 11.9729 6.2512 11.323 6.92258 10.8776C7.06049 10.7915 7.22653 10.7625 7.38546 10.7968C7.54439 10.8311 7.68369 10.926 7.7738 11.0613C7.86391 11.1966 7.89774 11.3618 7.86811 11.5216C7.83847 11.6815 7.74771 11.8235 7.61508 11.9176C7.13534 12.2396 6.78183 12.7177 6.61454 13.2708C6.44726 13.8238 6.47651 14.4178 6.69733 14.9517C6.91815 15.4856 7.31693 15.9267 7.82599 16.2001C8.33505 16.4734 8.92301 16.5622 9.49008 16.4513C9.65263 16.4192 9.82127 16.4528 9.9592 16.5446C10.0971 16.6364 10.1932 16.779 10.2263 16.9413C10.2425 17.0218 10.2427 17.1046 10.2268 17.1851C10.211 17.2656 10.1794 17.3422 10.1339 17.4105C10.0883 17.4788 10.0298 17.5374 9.96158 17.583C9.89336 17.6286 9.81682 17.6603 9.73633 17.6763C9.49403 17.7256 9.24735 17.7504 9.00008 17.7501Z" fill="#12171A"/>
<path d="M9 22.75H7.95C7.80722 22.7498 7.66883 22.7006 7.55784 22.6108C7.44686 22.521 7.36998 22.3959 7.34 22.2563L7.00625 20.715C6.54235 20.5737 6.09385 20.3861 5.6675 20.155L4.325 21.0138C4.20495 21.0905 4.06229 21.1239 3.92066 21.1084C3.77903 21.093 3.64693 21.0296 3.54625 20.9288L2.07 19.4538C1.96939 19.3529 1.90624 19.2208 1.89101 19.0791C1.87578 18.9375 1.90938 18.7949 1.98625 18.675L2.845 17.3325C2.61391 16.9053 2.4263 16.456 2.285 15.9913L0.74125 15.6488C0.602012 15.618 0.477433 15.5407 0.388109 15.4296C0.298784 15.3184 0.250063 15.1801 0.25 15.0375V12.9625C0.250056 12.8203 0.298645 12.6823 0.387737 12.5714C0.47683 12.4604 0.601095 12.3832 0.74 12.3525L2.28375 12.01C2.4225 11.5513 2.61 11.1025 2.84375 10.67L1.9875 9.33877C1.90986 9.21927 1.87557 9.07675 1.89036 8.93502C1.90515 8.79328 1.96812 8.66091 2.06875 8.56002L3.545 7.07252C3.64536 6.9708 3.77767 6.90671 3.9197 6.891C4.06173 6.8753 4.20484 6.90893 4.325 6.98627L5.6675 7.84502C6.09395 7.61416 6.54244 7.42656 7.00625 7.28502L7.34 5.74377C7.35514 5.66145 7.38666 5.58301 7.43268 5.51311C7.47871 5.4432 7.53831 5.38325 7.60795 5.33682C7.67758 5.29038 7.75584 5.25841 7.83806 5.24279C7.92029 5.22717 8.00482 5.22823 8.08663 5.2459C8.16844 5.26356 8.24587 5.29749 8.31432 5.34565C8.38278 5.39381 8.44086 5.45523 8.48513 5.52626C8.52939 5.59729 8.55894 5.67649 8.57202 5.75916C8.58509 5.84183 8.58143 5.92629 8.56125 6.00752L8.14875 7.92002C8.12414 8.03488 8.06754 8.14044 7.98548 8.22449C7.90341 8.30855 7.79924 8.36766 7.685 8.39502C7.08154 8.54312 6.50468 8.7839 5.975 9.10877C5.87522 9.16966 5.76037 9.20136 5.64348 9.20026C5.52659 9.19915 5.41236 9.16529 5.31375 9.10252L4.07625 8.31127L3.30875 9.08377L4.1 10.3113C4.16408 10.4098 4.19891 10.5244 4.20046 10.6419C4.20201 10.7594 4.17021 10.8749 4.10875 10.975C3.78355 11.5039 3.54314 12.0805 3.39625 12.6838C3.36876 12.7977 3.30992 12.9016 3.22642 12.9838C3.14291 13.0659 3.03807 13.1231 2.92375 13.1488L1.5 13.4638V14.535L2.92375 14.8513C3.03807 14.8769 3.14291 14.9341 3.22642 15.0163C3.30992 15.0985 3.36876 15.2024 3.39625 15.3163C3.5375 15.9063 3.77875 16.4813 4.10875 17.025C4.23375 17.2288 4.23125 17.4863 4.10125 17.6875L3.30875 18.925L4.07375 19.69L5.3125 18.8975C5.41121 18.835 5.52541 18.8013 5.64223 18.8002C5.75906 18.7991 5.87388 18.8306 5.97375 18.8913C6.51875 19.2225 7.09375 19.4625 7.6825 19.605C7.79674 19.6324 7.90091 19.6915 7.98298 19.7755C8.06504 19.8596 8.12164 19.9652 8.14625 20.08L8.45375 21.5H9C9.16576 21.5 9.32473 21.5659 9.44194 21.6831C9.55915 21.8003 9.625 21.9593 9.625 22.125C9.625 22.2908 9.55915 22.4497 9.44194 22.567C9.32473 22.6842 9.16576 22.75 9 22.75ZM18.375 22.125C18.28 22.1252 18.1862 22.1037 18.1007 22.0622C18.0153 22.0206 17.9405 21.9601 17.882 21.8852C17.8235 21.8103 17.7829 21.7231 17.7633 21.6301C17.7436 21.5371 17.7455 21.4409 17.7688 21.3488L19.0187 16.3488C19.038 16.2688 19.073 16.1935 19.1217 16.1272C19.1704 16.0609 19.2317 16.005 19.3022 15.9626C19.3727 15.9203 19.4509 15.8924 19.5323 15.8806C19.6137 15.8688 19.6966 15.8732 19.7763 15.8938C19.8559 15.9135 19.9309 15.9488 19.997 15.9976C20.063 16.0463 20.1187 16.1077 20.161 16.1781C20.2033 16.2484 20.2313 16.3265 20.2433 16.4077C20.2554 16.4889 20.2513 16.5716 20.2313 16.6513L18.9812 21.6513C18.9479 21.7868 18.87 21.9071 18.7601 21.993C18.6501 22.0789 18.5145 22.1254 18.375 22.125ZM22.125 22.125C22.0015 22.125 21.8807 22.0884 21.778 22.0198C21.6753 21.9512 21.5952 21.8537 21.5479 21.7396C21.5005 21.6255 21.488 21.4999 21.512 21.3788C21.536 21.2576 21.5953 21.1462 21.6825 21.0588L23.7412 19L21.6838 16.9425C21.5699 16.8246 21.5069 16.6668 21.5083 16.5029C21.5098 16.339 21.5755 16.1823 21.6914 16.0664C21.8072 15.9505 21.964 15.8848 22.1279 15.8833C22.2917 15.8819 22.4496 15.9449 22.5675 16.0588L25.0675 18.5588C25.1847 18.676 25.2505 18.8349 25.2505 19.0006C25.2505 19.1664 25.1847 19.3253 25.0675 19.4425L22.5675 21.9425C22.4499 22.0594 22.2908 22.125 22.125 22.125ZM15.875 22.125C15.7092 22.125 15.5501 22.0594 15.4325 21.9425L12.9325 19.4425C12.8153 19.3253 12.7495 19.1664 12.7495 19.0006C12.7495 18.8349 12.8153 18.676 12.9325 18.5588L15.4325 16.0588C15.5504 15.9449 15.7083 15.8819 15.8721 15.8833C16.036 15.8848 16.1928 15.9505 16.3086 16.0664C16.4245 16.1823 16.4902 16.339 16.4917 16.5029C16.4931 16.6668 16.4301 16.8246 16.3162 16.9425L14.2587 19L16.3162 21.0575C16.4038 21.1449 16.4635 21.2562 16.4877 21.3775C16.512 21.4987 16.4997 21.6245 16.4525 21.7388C16.4052 21.8531 16.3251 21.9508 16.2223 22.0195C16.1196 22.0883 15.9987 22.125 15.875 22.125Z" fill="#12171A"/>
</svg>
