<svg width="40" height="36" viewBox="0 0 40 36" fill="none" xmlns="http://www.w3.org/2000/svg">
<path d="M15.782 26.0166C15.6253 26.0167 15.4736 25.9607 15.3545 25.8589L11.0812 22.2202C11.0083 22.1582 10.9499 22.0811 10.9098 21.9943C10.8696 21.9075 10.8489 21.813 10.8489 21.7174C10.8489 21.6218 10.8696 21.5273 10.9098 21.4404C10.9499 21.3536 11.0083 21.2765 11.0812 21.2146L15.3545 17.5759C15.4878 17.4623 15.6607 17.4063 15.8353 17.4203C16.0098 17.4342 16.1717 17.5169 16.2853 17.6502C16.5215 17.9281 16.4883 18.3448 16.2105 18.5811L12.528 21.7172L16.2105 24.8532C16.3135 24.9408 16.3871 25.0579 16.4214 25.1887C16.4557 25.3195 16.449 25.4577 16.4023 25.5845C16.3556 25.7114 16.271 25.8209 16.1601 25.8981C16.0491 25.9754 15.9172 26.0168 15.782 26.0166ZM24.2179 26.0166C24.0311 26.0166 23.8454 25.9378 23.7149 25.7841C23.6014 25.6508 23.5454 25.4778 23.5594 25.3032C23.5734 25.1287 23.6561 24.9668 23.7894 24.8532L27.4719 21.7172L23.7894 18.5811C23.6608 18.4662 23.5823 18.3056 23.5706 18.1336C23.5589 17.9616 23.6149 17.7918 23.7266 17.6605C23.8384 17.5293 23.9971 17.4469 24.1688 17.4311C24.3404 17.4152 24.5115 17.4672 24.6454 17.5758L28.9187 21.2145C28.9915 21.2765 29.05 21.3535 29.0901 21.4403C29.1302 21.5272 29.151 21.6217 29.151 21.7173C29.151 21.8129 29.1302 21.9074 29.0901 21.9942C29.05 22.0811 28.9915 22.1581 28.9187 22.2201L24.6454 25.8588C24.5263 25.9607 24.3747 26.0166 24.218 26.0166H24.2179ZM18.4872 28.7459C18.3888 28.746 18.2917 28.7241 18.2028 28.6819C18.114 28.6397 18.0357 28.5781 17.9737 28.5018C17.9117 28.4254 17.8675 28.3362 17.8444 28.2406C17.8212 28.145 17.8198 28.0454 17.84 27.9492L20.5032 15.3043C20.5394 15.1329 20.6421 14.9829 20.7888 14.8872C20.9355 14.7916 21.1143 14.7581 21.2856 14.7942C21.457 14.8303 21.6071 14.9331 21.7027 15.0798C21.7984 15.2265 21.8318 15.4052 21.7957 15.5766L19.1325 28.2214C19.1013 28.3696 19.0202 28.5025 18.9027 28.5979C18.7853 28.6934 18.6386 28.7456 18.4872 28.7459Z" fill="#12171A"/>
<path d="M35.566 35.6349H4.43396C1.98925 35.6349 0 33.646 0 31.2009V4.77771C0 2.333 1.98925 0.34375 4.43396 0.34375H35.566C38.0108 0.34375 40 2.333 40 4.77771V31.2009C40 33.646 38.0108 35.6349 35.566 35.6349ZM4.43396 1.6645C2.71745 1.6645 1.32075 3.0612 1.32075 4.77771V31.2009C1.32075 32.9174 2.71745 34.3141 4.43396 34.3141H35.566C37.2825 34.3141 38.6792 32.9174 38.6792 31.2009V4.77771C38.6792 3.0612 37.2825 1.6645 35.566 1.6645H4.43396Z" fill="#12171A"/>
<path d="M39.3397 10.9182H0.660417C0.487207 10.9153 0.322082 10.8444 0.200626 10.7209C0.0791702 10.5974 0.0111084 10.4311 0.0111084 10.2579C0.0111084 10.0846 0.0791702 9.91832 0.200626 9.79479C0.322082 9.67126 0.487207 9.6004 0.660417 9.59747H39.3397C39.5129 9.6004 39.678 9.67126 39.7995 9.79479C39.9209 9.91832 39.989 10.0846 39.989 10.2579C39.989 10.4311 39.9209 10.5974 39.7995 10.7209C39.678 10.8444 39.5129 10.9153 39.3397 10.9182ZM11.2832 7.75823C10.1313 7.75823 9.19334 6.8203 9.19334 5.66832C9.19334 4.51606 10.1313 3.57851 11.2832 3.57851C12.4355 3.57851 13.3731 4.51606 13.3731 5.66832C13.3731 6.8203 12.4355 7.75823 11.2832 7.75823ZM11.2832 4.89927C10.8594 4.89927 10.5141 5.24417 10.5141 5.66832C10.5141 6.09247 10.8594 6.43747 11.2832 6.43747C11.7074 6.43747 12.0523 6.09257 12.0523 5.66832C12.0523 5.24408 11.7074 4.89927 11.2832 4.89927ZM4.8623 7.73794C3.70985 7.73794 2.7724 6.8004 2.7724 5.64813C2.7724 4.49577 3.70985 3.55823 4.86221 3.55823C6.01457 3.55823 6.95202 4.49577 6.95202 5.64813C6.95202 6.8004 6.01466 7.73794 4.8623 7.73794ZM4.8623 4.87898C4.43844 4.87898 4.09315 5.22427 4.09315 5.64813C4.09315 6.07228 4.43844 6.41719 4.86221 6.41719C5.28636 6.41719 5.63127 6.07228 5.63127 5.64813C5.63127 5.22427 5.28646 4.87898 4.8623 4.87898ZM17.7042 7.77813C16.5523 7.77813 15.6148 6.84059 15.6148 5.68823C15.6148 4.53634 16.5522 3.59879 17.7042 3.59879C18.8566 3.59879 19.794 4.53625 19.794 5.68823C19.794 6.84059 18.8566 7.77813 17.7042 7.77813ZM17.7042 4.91917C17.2804 4.91917 16.9355 5.26408 16.9355 5.68823C16.9355 6.11238 17.2804 6.45738 17.7042 6.45738C18.1283 6.45738 18.4732 6.11238 18.4732 5.68823C18.4732 5.26408 18.1283 4.91917 17.7042 4.91917Z" fill="#12171A"/>
</svg>
